<svg xmlns="http://www.w3.org/2000/svg" xmlns:xlink="http://www.w3.org/1999/xlink"
                                    x="0px" y="0px" viewBox="0 0 80 80" style="enable-background:new 0 0 80 80;"
                                    xml:space="preserve">
                                    <g transform="translate(0 0)">
                                        <g>
                                            <defs>
                                                <rect width="80" height="80"></rect>
                                            </defs>
                                            <clipPath>
                                                <use xlink:href="#SVGID_1_" style="overflow:visible;"></use>
                                            </clipPath>
                                            <g transform="translate(0 0)" class="st0">
                                                <g>
                                                    <path
                                                        d="M45.3,65.9c-3.5,0-6.3-2.8-6.3-6.3s2.8-6.3,6.3-6.3s6.3,2.8,6.3,6.3S48.8,65.9,45.3,65.9z M45.3,55.2     c-2.4,0-4.3,1.9-4.3,4.3s1.9,4.3,4.3,4.3s4.3-1.9,4.3-4.3S47.7,55.2,45.3,55.2z">
                                                    </path>
                                                </g>
                                                <g>
                                                    <path
                                                        d="M50.7,30.3c-3.5,0-6.3-2.8-6.3-6.3c0-3.5,2.8-6.3,6.3-6.3S57,20.5,57,24C57,27.5,54.2,30.3,50.7,30.3z      M50.7,19.7c-2.4,0-4.3,1.9-4.3,4.3s1.9,4.3,4.3,4.3S55,26.4,55,24S53.1,19.7,50.7,19.7z">
                                                    </path>
                                                </g>
                                                <g>
                                                    <path
                                                        d="M57.8,48.1c-3.5,0-6.3-2.8-6.3-6.3c0-3.5,2.8-6.3,6.3-6.3s6.3,2.8,6.3,6.3C64.1,45.3,61.3,48.1,57.8,48.1z      M57.8,37.4c-2.4,0-4.3,1.9-4.3,4.3s1.9,4.3,4.3,4.3s4.3-1.9,4.3-4.3S60.2,37.4,57.8,37.4z">
                                                    </path>
                                                </g>
                                                <g>
                                                    <rect x="13.3" y="40.8" width="39.1" height="2"></rect>
                                                </g>
                                                <g>
                                                    <polygon
                                                        points="40.4,35.7 29.3,35.7 29.3,33.7 39.6,33.7 46.4,26.8 47.8,28.3     ">
                                                    </polygon>
                                                </g>
                                                <g>
                                                    <path
                                                        d="M32.9,28.5c-3.5,0-6.3-2.8-6.3-6.3s2.8-6.3,6.3-6.3c3.5,0,6.3,2.8,6.3,6.3S36.4,28.5,32.9,28.5z M32.9,17.9     c-2.4,0-4.3,1.9-4.3,4.3s1.9,4.3,4.3,4.3s4.3-1.9,4.3-4.3S35.3,17.9,32.9,17.9z">
                                                    </path>
                                                </g>
                                                <g>
                                                    <polygon
                                                        points="41.1,56.7 34.3,49.9 16.9,49.9 16.9,47.9 35.1,47.9 42.5,55.3     ">
                                                    </polygon>
                                                </g>
                                                <g>
                                                    <polygon
                                                        points="20.8,35.7 13.3,35.7 13.3,33.7 20,33.7 28.6,25.1 30,26.5     ">
                                                    </polygon>
                                                </g>
                                            </g>
                                            <g class="svg-animate-1">
                                                <path
                                                    d="M46.7,79.2c-0.3,0-0.7-0.2-0.8-0.5L42.2,73h-4.4l-3.7,5.7c-0.2,0.4-0.7,0.5-1.1,0.4l-6.5-1.9    c-0.4-0.1-0.7-0.5-0.7-0.9l-0.1-7.1L21.9,67l-6.2,3.5c-0.4,0.2-0.9,0.1-1.2-0.2l-4.8-4.8c-0.3-0.3-0.4-0.8-0.2-1.2l3.5-6.2    l-2.2-3.8l-7.1-0.1c-0.4,0-0.8-0.3-0.9-0.7L0.8,47c-0.1-0.4,0-0.9,0.4-1.1L7,42.2v-4.4l-5.7-3.7c-0.4-0.2-0.5-0.7-0.4-1.1    l1.9-6.5c0.1-0.4,0.5-0.7,0.9-0.7l7.1-0.1l2.2-3.8l-3.4-6.2c-0.2-0.4-0.1-0.9,0.2-1.2l4.8-4.8c0.3-0.3,0.8-0.4,1.2-0.2l6.2,3.5    l3.8-2.2l0.1-7.1c0-0.4,0.3-0.8,0.7-0.9L33,0.8c0.4-0.1,0.9,0,1.1,0.4L37.8,7h4.4l3.7-5.7c0.2-0.4,0.7-0.5,1.1-0.4l6.5,1.9    c0.4,0.1,0.7,0.5,0.7,0.9l0.1,7.1l3.8,2.2l6.2-3.5c0.4-0.2,0.9-0.1,1.2,0.2l4.8,4.8c0.3,0.3,0.4,0.8,0.2,1.2L67,21.9l2.2,3.8    l7.1,0.1c0.4,0,0.8,0.3,0.9,0.7l1.9,6.5c0.1,0.4,0,0.9-0.4,1.1L73,37.8v4.4l5.7,3.7c0.4,0.2,0.5,0.7,0.4,1.1l-1.9,6.5    c-0.1,0.4-0.5,0.7-0.9,0.7l-7.1,0.1L67,58.1l3.5,6.2c0.2,0.4,0.1,0.9-0.2,1.2l-4.8,4.8c-0.3,0.3-0.8,0.4-1.2,0.2L58.1,67    l-3.8,2.2l-0.1,7.1c0,0.4-0.3,0.8-0.7,0.9L47,79.2C46.9,79.2,46.8,79.2,46.7,79.2z M27.8,75.6l5.1,1.5l3.6-5.6    c0.2-0.3,0.5-0.5,0.8-0.5h5.5c0.3,0,0.7,0.2,0.8,0.5l3.6,5.6l5.1-1.5l0.1-7c0-0.4,0.2-0.7,0.5-0.8l4.8-2.8c0.3-0.2,0.7-0.2,1,0    l6.1,3.4l3.7-3.7L65,58.6c-0.2-0.3-0.2-0.7,0-1l2.8-4.8c0.2-0.3,0.5-0.5,0.8-0.5l6.9-0.1l1.5-5.1l-5.6-3.6    c-0.3-0.2-0.5-0.5-0.5-0.8v-5.5c0-0.3,0.2-0.7,0.5-0.8l5.6-3.6l-1.5-5.1l-7-0.1c-0.4,0-0.7-0.2-0.8-0.5L65,22.4    c-0.2-0.3-0.2-0.7,0-1l3.4-6.1l-3.7-3.7L58.6,15c-0.3,0.2-0.7,0.2-1,0l-4.8-2.8c-0.3-0.2-0.5-0.5-0.5-0.8l-0.1-6.9l-5.1-1.5    l-3.6,5.6C43.4,8.8,43.1,9,42.7,9h-5.5c-0.3,0-0.7-0.2-0.8-0.5L32.9,3l-5.1,1.5l-0.1,7c0,0.4-0.2,0.7-0.5,0.8L22.4,15    c-0.3,0.2-0.7,0.2-1,0l-6.1-3.4l-3.7,3.7l3.4,6.1c0.2,0.3,0.2,0.7,0,1l-2.8,4.8c-0.2,0.3-0.5,0.5-0.8,0.5l-6.9,0.1l-1.5,5.1    l5.6,3.6C8.8,36.6,9,36.9,9,37.2v5.5c0,0.3-0.2,0.7-0.5,0.8L3,47.1l1.5,5.1l7,0.1c0.4,0,0.7,0.2,0.8,0.5l2.8,4.8    c0.2,0.3,0.2,0.7,0,1l-3.4,6.1l3.7,3.7l6.1-3.4c0.3-0.2,0.7-0.2,1,0l4.8,2.8c0.3,0.2,0.5,0.5,0.5,0.8L27.8,75.6z">
                                                </path>
                                            </g>
                                        </g>
                                    </g>

                                </svg>